<svg xmlns="http://www.w3.org/2000/svg" width="30.588" height="23.326" viewBox="0 0 30.588 23.326">
  <g id="Grupo_3854" data-name="Grupo 3854" transform="translate(19678.634 21851.664)">
    <g id="Grupo_3815" data-name="Grupo 3815" transform="translate(-19678.633 -21851.664)">
      <g id="Grupo_3798" data-name="Grupo 3798">
        <path id="Caminho_3715" data-name="Caminho 3715" d="M461.3,734.781c-1.942,0-3.883.018-5.825-.005a3.731,3.731,0,0,1-3.849-3.865,24.554,24.554,0,0,1,.375-3.7,6.285,6.285,0,0,1,1.24-2.8,4.046,4.046,0,0,1,3.421-1.661,2.239,2.239,0,0,1,.92.326c.657.339,1.272.771,1.949,1.059a4.921,4.921,0,0,0,4.532-.416,4.8,4.8,0,0,0,.725-.469,2.476,2.476,0,0,1,2.448-.349,4.223,4.223,0,0,1,2.645,2.212,11.158,11.158,0,0,1,1.1,6.5,3.692,3.692,0,0,1-3.809,3.167C465.214,734.8,463.257,734.781,461.3,734.781Z" transform="translate(-451.626 -711.461)" fill="#fff"/>
        <path id="Caminho_3716" data-name="Caminho 3716" d="M494.94,604.477a5.585,5.585,0,0,1,5.895-5.549,5.615,5.615,0,0,1-.4,11.221A5.585,5.585,0,0,1,494.94,604.477Z" transform="translate(-490.995 -598.926)" fill="#fff"/>
      </g>
      <text id="_" data-name="+" transform="translate(20.587 17.889)" fill="#fff" font-size="17" font-family="LibreFranklin-Bold, Libre Franklin" font-weight="700"><tspan x="0" y="0">+</tspan></text>
    </g>
  </g>
</svg>
