<svg xmlns="http://www.w3.org/2000/svg" width="21.773" height="21.672" viewBox="0 0 21.773 21.672">
  <g id="Grupo_56" data-name="Grupo 56" transform="translate(-276.897 -161.625)">
    <path id="Caminho_68" data-name="Caminho 68" d="M305.219,216.782l11.12-11.116,4.327,4.328-11.113,11.113Z" transform="translate(-25.915 -40.297)" fill="#fff"/>
    <path id="Caminho_69" data-name="Caminho 69" d="M455.08,168.483l-4.3-4.3c.672-.718,1.309-1.5,2.052-2.16a1.79,1.79,0,0,1,2.347.084c.763.7,1.491,1.432,2.2,2.186a1.388,1.388,0,0,1,.038,1.9C456.667,166.988,455.861,167.721,455.08,168.483Z" transform="translate(-159.098)" fill="#fff"/>
    <path id="Caminho_70" data-name="Caminho 70" d="M278,351.57l4.357,4.347-1.026.25c-1.209.295-2.417.592-3.627.884-.652.157-.917-.113-.771-.768q.485-2.174.966-4.348C277.932,351.8,277.974,351.672,278,351.57Z" transform="translate(0 -173.797)" fill="#fff"/>
  </g>
</svg>
