<svg xmlns="http://www.w3.org/2000/svg" width="29.029" height="29.042" viewBox="0 0 29.029 29.042">
  <g id="Grupo_3979" data-name="Grupo 3979" transform="translate(-322.178 -176.744)">
    <path id="Caminho_125" data-name="Caminho 125" d="M334.632,261.25c1.968-.516,3.927-1.066,5.907-1.534a5.035,5.035,0,0,0,2.477-1.35c.927-.914,1.937-1.744,2.886-2.637a1.682,1.682,0,0,0,.43-.749c.361-1.305.593-2.655,1.053-3.922a3.221,3.221,0,0,1,3.143-2.187c.562-.02.748.175.658.709-.434,2.567-.869,5.134-1.335,7.695a1.764,1.764,0,0,1-.476.857q-3.205,3.247-6.455,6.449a2.82,2.82,0,0,1-1.236.707c-3.059.748-6.13,1.449-9.2,2.159a1.825,1.825,0,0,0-1.677,1.77.523.523,0,0,1-.6.517q-3.712-.007-7.425,0c-.392,0-.608-.155-.6-.566.038-2.227.014-4.458.141-6.68a8.7,8.7,0,0,1,.676-2.672,6.373,6.373,0,0,1,7.573-3.976,9.954,9.954,0,0,0,5.866-.575,15.907,15.907,0,0,1,2.3-.781,2.379,2.379,0,0,1,3.071,2.811,1.937,1.937,0,0,1-1.33,1.557c-1.093.358-2.2.667-3.3,1.022A5.741,5.741,0,0,0,334.632,261.25Z" transform="translate(0 -63.946)" fill="#fff"/>
    <path id="Caminho_126" data-name="Caminho 126" d="M381.21,178.782c1.771-1.943,3.979-2.284,6.4-1.871.65.111,1.294.261,1.932.429.6.157.741.49.348.941a25.639,25.639,0,0,1-2.705,2.875,5.315,5.315,0,0,1-5.522.912,17.937,17.937,0,0,1-.018,1.973c-.053.471.383,1.335-.451,1.32-.8-.014-.375-.869-.427-1.347a18.952,18.952,0,0,1-.017-2c-2.243.957-4.153.27-5.831-1.173a21.243,21.243,0,0,1-2.338-2.6c-.339-.407-.231-.723.25-.863a11.107,11.107,0,0,1,4.909-.54A5.54,5.54,0,0,1,381.21,178.782Z" transform="translate(-44.51)" fill="#fff"/>
    <path id="Caminho_127" data-name="Caminho 127" d="M397.413,260.829a8.377,8.377,0,0,1,7,4.458,1.554,1.554,0,0,1,.236.791.88.88,0,0,1-.774.854.927.927,0,0,1-1.059-.568,3.472,3.472,0,0,0-4.537-2.064,28.231,28.231,0,0,0-2.725.929,7.416,7.416,0,0,1-4.489.377c-1-.241-1.321-1.06-.66-1.843A8.956,8.956,0,0,1,397.413,260.829Z" transform="translate(-60.185 -74.551)" fill="#fff"/>
  </g>
</svg>
