<svg xmlns="http://www.w3.org/2000/svg" width="10.539" height="15.152" viewBox="0 0 10.539 15.152">
  <g id="Grupo_3859" data-name="Grupo 3859" transform="translate(-274.207 -180.576)">
    <path id="Caminho_107" data-name="Caminho 107" d="M327.463,180.577c.341.952.729,1.889,1.014,2.857a18.938,18.938,0,0,1,.349,9.955,10.2,10.2,0,0,1-.639,1.655,1.619,1.619,0,0,1-.4.5.53.53,0,0,1-.809-.009,3.889,3.889,0,0,1-.623-.934,10.569,10.569,0,0,1-.812-3.453,20.2,20.2,0,0,1,1.685-10.276c.042-.095.1-.185.143-.277Z" transform="translate(-47.913)" fill="#fff"/>
    <path id="Caminho_108" data-name="Caminho 108" d="M366.892,184.053a12.523,12.523,0,0,1,4.223,6.178,7.515,7.515,0,0,1-1.57,7.134,4.315,4.315,0,0,1-2.239,1.411,8.018,8.018,0,0,0,.992-2.8,20.213,20.213,0,0,0-.806-10.323C367.308,185.112,367.093,184.585,366.892,184.053Z" transform="translate(-86.667 -3.25)" fill="#fff"/>
    <path id="Caminho_109" data-name="Caminho 109" d="M278.271,198.744a4.413,4.413,0,0,1-1.795-1.012,6.921,6.921,0,0,1-2.172-4.238,9.089,9.089,0,0,1,2.021-6.96,14.7,14.7,0,0,1,2.38-2.526,21.093,21.093,0,0,0-1.689,7.331A14.748,14.748,0,0,0,278.271,198.744Z" transform="translate(0 -3.209)" fill="#fff"/>
  </g>
</svg>
