<svg xmlns="http://www.w3.org/2000/svg" width="14.318" height="13.082" viewBox="0 0 14.318 13.082">
  <g id="Grupo_3857" data-name="Grupo 3857" transform="translate(-501.781 -707.861)">
    <path id="Caminho_3727" data-name="Caminho 3727" d="M529.325,782.3a5.419,5.419,0,0,1,3.679.676,4.877,4.877,0,0,0,1.778.477,6.522,6.522,0,0,0,1.038.013.771.771,0,0,1,.844.769.761.761,0,0,1-.831.73c-.892.009-1.784,0-2.675,0h-.489c.042.112.052.161.062.161a29.419,29.419,0,0,0,3.409-.008,9.173,9.173,0,0,0,2.087-.744c.463-.173.924-.353,1.389-.52a.785.785,0,0,1,1.077.388.767.767,0,0,1-.5,1.025c-1.724.787-3.441,1.589-5.172,2.362a3.081,3.081,0,0,1-3.148-.233c-.7-.457-1.487-.771-2.225-1.166-.132-.071-.309-.227-.311-.347C529.315,784.7,529.325,783.515,529.325,782.3Z" transform="translate(-24.811 -67.015)" fill="#fff"/>
    <path id="Caminho_3728" data-name="Caminho 3728" d="M580.19,728.443a13.741,13.741,0,0,1,3.122-4.246,11.711,11.711,0,0,0-3.466,3.751,3.809,3.809,0,0,1,2.178-4.732c1.03-.434,2.107-.757,3.168-1.113.325-.109.669-.16,1.086-.256-.061.539-.087,1.025-.175,1.5-.175.938-.35,1.879-.6,2.8a2.053,2.053,0,0,1-.609.99C583.563,728.251,581.93,728.32,580.19,728.443Z" transform="translate(-70.178 -12.598)" fill="#fff"/>
    <path id="Caminho_3729" data-name="Caminho 3729" d="M548.067,707.862c1.863.551,3.848.837,5.295,2.389l-1.534,1L550,709.413l-.167.121c1.279,1.039,2.076,2.2.924,3.847-.9-.262-1.852-.616-2.127-1.753-.292-1.21-.5-2.442-.739-3.664Z" transform="translate(-41.538)" fill="#fff"/>
    <path id="Caminho_3730" data-name="Caminho 3730" d="M501.781,773.737c.589,0,1.148-.022,1.7.007a.752.752,0,0,1,.766.8q.021,1.955,0,3.91a.744.744,0,0,1-.762.8c-.558.021-1.117,0-1.708,0Z" transform="translate(0 -59.336)" fill="#fff"/>
  </g>
</svg>
