<svg xmlns="http://www.w3.org/2000/svg" width="19.023" height="17.445" viewBox="0 0 19.023 17.445">
  <g id="Grupo_3869" data-name="Grupo 3869" transform="translate(-281.99 -191.5)">
    <path id="Caminho_83" data-name="Caminho 83" d="M331.179,201.813q-2.283,0-4.567,0a1.568,1.568,0,0,1-1.738-1.713q-.005-2.413,0-4.826a1.57,1.57,0,0,1,1.712-1.706c.493,0,1.082.143,1.45-.077.353-.21.485-.8.7-1.233a1.27,1.27,0,0,1,1.22-.753c.841-.006,1.683-.008,2.525,0a1.251,1.251,0,0,1,1.192.737c.18.366.383.721.553,1.091a.363.363,0,0,0,.4.24c.445-.015.891-.011,1.336,0a1.542,1.542,0,0,1,1.578,1.573q.018,2.543,0,5.086a1.538,1.538,0,0,1-1.605,1.581C334.347,201.818,332.763,201.813,331.179,201.813Zm.016-2.072a2.393,2.393,0,1,0-2.443-2.4A2.412,2.412,0,0,0,331.195,199.741Z" transform="translate(-39.697)"/>
    <path id="Caminho_84" data-name="Caminho 84" d="M288.332,308.257c-.749-.218-1.468-.4-2.166-.638a7.535,7.535,0,0,1-3.19-1.957,3.22,3.22,0,0,1-.881-3.1,3.986,3.986,0,0,1,.719-1.307.741.741,0,0,1,1.093-.054.793.793,0,0,1,.1,1.073,1.659,1.659,0,0,0,.172,2.356,7.175,7.175,0,0,0,3.232,1.724c.282.086.572.147.924.236,0-.269,0-.509,0-.748a.616.616,0,0,1,1.1-.453c.608.616,1.227,1.222,1.834,1.839a.6.6,0,0,1,0,.994c-.608.616-1.225,1.224-1.835,1.838a.6.6,0,0,1-.7.2.637.637,0,0,1-.393-.654C288.333,309.143,288.332,308.687,288.332,308.257Z" transform="translate(0 -101.353)"/>
    <path id="Caminho_85" data-name="Caminho 85" d="M431.8,303.19a3.428,3.428,0,0,1-1.178,2.833,8.919,8.919,0,0,1-3.886,1.989c-.8.212-1.618.338-2.432.472a.8.8,0,0,1-1.032-.684c-.053-.473.3-.821.877-.89a11.542,11.542,0,0,0,3.839-1.052,7.754,7.754,0,0,0,1.6-1.052,1.6,1.6,0,0,0,.293-2.29c-.045-.074-.1-.144-.138-.22a.792.792,0,0,1,1.324-.866A3.311,3.311,0,0,1,431.8,303.19Z" transform="translate(-130.781 -101.463)"/>
  </g>
</svg>
