<svg xmlns="http://www.w3.org/2000/svg" width="20.299" height="20.301" viewBox="0 0 20.299 20.301">
  <g id="Grupo_3864" data-name="Grupo 3864" transform="translate(-436.654 -628.959)">
    <path id="Caminho_3722" data-name="Caminho 3722" d="M501.412,628.959a5.464,5.464,0,0,1,5.746,4.888,7.957,7.957,0,0,1-.833,4.292,27.334,27.334,0,0,1-3.979,6.031.594.594,0,0,1-.985.05,23.329,23.329,0,0,1-4.552-7.457,6.075,6.075,0,0,1,.889-5.857A4.848,4.848,0,0,1,501.412,628.959Zm.393,7.141a1.774,1.774,0,0,0,1.81-1.761,1.785,1.785,0,1,0-1.81,1.761Z" transform="translate(-55.038)" fill="#5ca439"/>
    <path id="Caminho_3723" data-name="Caminho 3723" d="M521.667,769.4l1.058-.542c.3.366.6.733.9,1.092a1.788,1.788,0,0,0,2.872,0,31.169,31.169,0,0,0,3.462-4.957c.109-.2.222-.305.457-.28a4.094,4.094,0,0,0,.554,0,.631.631,0,0,1,.644.428l1.851,4.314c-.118.067-.228.134-.342.193-2.353,1.22-4.709,2.434-7.056,3.665a.422.422,0,0,1-.6-.093c-1.168-1.185-2.351-2.354-3.529-3.53C521.86,769.614,521.783,769.526,521.667,769.4Z" transform="translate(-78.273 -124.991)" fill="#5ca439"/>
    <path id="Caminho_3724" data-name="Caminho 3724" d="M446.371,836.149a3,3,0,0,1-.606.14q-4.2.012-8.4,0c-.612,0-.837-.372-.641-.943a1.6,1.6,0,0,1,.9-.968c1.444-.709,2.871-1.452,4.3-2.194a.427.427,0,0,1,.6.079c1.174,1.2,2.369,2.375,3.555,3.561C446.162,835.91,446.236,836,446.371,836.149Z" transform="translate(0 -187.037)" fill="#5ca439"/>
    <path id="Caminho_3725" data-name="Caminho 3725" d="M456.758,767.227l-5.912,3.019c.069-.193.106-.315.156-.43q1.115-2.6,2.234-5.2a1.242,1.242,0,0,1,1.524-.57.365.365,0,0,1,.126.143C455.5,765.19,456.119,766.189,456.758,767.227Z" transform="translate(-13.066 -124.303)" fill="#5ca439"/>
    <path id="Caminho_3726" data-name="Caminho 3726" d="M595.678,838.578c.428,1,.86,1.961,1.245,2.939.15.382-.178.737-.633.74-1.044.007-2.088,0-3.131,0h-4.425l-.019-.073Z" transform="translate(-140.005 -193.003)" fill="#5ca439"/>
  </g>
</svg>
