<svg xmlns="http://www.w3.org/2000/svg" width="30.979" height="31" viewBox="0 0 30.979 31">
  <g id="Grupo_3853" data-name="Grupo 3853" transform="translate(-454.203 -689.977)">
    <path id="Caminho_3707" data-name="Caminho 3707" d="M463.085,893.372c-2.774,0-5.548-.017-8.322.014-.583.007-.626-.185-.5-.664a2.956,2.956,0,0,1,3-2.317,1.138,1.138,0,0,0,.913-.32,2.541,2.541,0,0,1,1.877-.714.844.844,0,0,0,.757-.337,2.945,2.945,0,0,1,4.563,0,.854.854,0,0,0,.627.352,2.585,2.585,0,0,1,1.7.829.707.707,0,0,0,.775.22,2.982,2.982,0,0,1,3.455,2.358c.1.452.038.592-.457.589C468.676,893.361,465.88,893.372,463.085,893.372Z" transform="translate(0 -172.411)" fill="#fff"/>
    <path id="Caminho_3708" data-name="Caminho 3708" d="M484.884,779.529c1.407-1.739,2.91-2.262,4.594-1.77.63.184.756.5.623,1.083a3.888,3.888,0,0,1-4.732,2.9c-.46-.109-.513,0-.49.395.024.407-.009.818.009,1.225.016.338,0,.541-.458.536s-.491-.18-.47-.535c.024-.407-.015-.818.011-1.225s-.043-.494-.491-.391a3.873,3.873,0,0,1-4.746-3.117.63.63,0,0,1,.484-.815c1.666-.62,3.291-.076,4.745,1.665,0-1.27,0-2.462,0-3.654,0-.254-.227-.35-.365-.5a3.9,3.9,0,0,1,.306-5.592.669.669,0,0,1,1.045-.017,3.891,3.891,0,0,1,.318,5.583,1.329,1.329,0,0,0-.389,1.023C484.9,777.346,484.884,778.371,484.884,779.529Z" transform="translate(-21.347 -69.231)" fill="#fff"/>
    <path id="Caminho_3709" data-name="Caminho 3709" d="M568.952,853.967c2.492,0,4.984.019,7.475-.014.614-.008.667.2.528.709a2.59,2.59,0,0,1-2.515,2.014c-4.231.017-8.463.007-12.694.007a2.436,2.436,0,0,1-1.279-.373,1.727,1.727,0,0,1-.745-.692c-.206-.462.382-.451.517-.732.443-.922,1.244-.954,2.141-.934C564.569,854,566.76,853.967,568.952,853.967Z" transform="translate(-91.854 -142.797)" fill="#fff"/>
    <path id="Caminho_3710" data-name="Caminho 3710" d="M580.159,692.032c-.558,0-1.115-.008-1.672,0-.389.008-.6-.121-.6-.553.021-1.792-.177-1.475,1.435-1.5.858-.012,1.716.015,2.573-.009.473-.013.641.174.651.641.03,1.415.043,1.414-1.36,1.414Z" transform="translate(-107.715 0)" fill="#fff"/>
    <path id="Caminho_3711" data-name="Caminho 3711" d="M573.692,716.009a2.666,2.666,0,0,0-2.932-2.965c-2.494,0-4.988,0-7.482,0-.189,0-.52.017-.544-.055-.188-.554-.631-.319-.967-.336-.643-.031-1.29-.011-1.935-.007-.126,0-.348-.007-.364.042-.2.611-.7.329-1.061.352a2.716,2.716,0,0,0-2.5,2.067c-.107.462-.059.675.528.671,3.7-.029,7.4-.015,11.094-.015h.605l-.862-1.019c1.365,0,2.6-.02,3.841.01a.833.833,0,0,1,.858.813c.041,1.466.015,2.935.015,4.531-.95-1.075-1.812-2.03-2.647-3.009a1.083,1.083,0,0,0-.92-.44q-6,.027-12,0c-.437,0-.577.086-.574.553q.034,4.708,0,9.417c0,.47.131.592.589.669,1.513.253,2.02.884,1.7,2.134-.142.561.042.581.5.58q7.224-.019,14.448.006c.533,0,.616-.168.614-.645C573.686,724.909,573.694,720.459,573.692,716.009Zm-4.576,11.867a1.1,1.1,0,0,1-1.32-.922.8.8,0,0,0-.453-.629,3.738,3.738,0,0,1-1.018-.668,1.457,1.457,0,0,0-.107-.112l-.036-.033c-.025-.022-.05-.042-.075-.062l-.042-.031c-.027-.019-.054-.035-.082-.051l-.036-.018a1.693,1.693,0,0,1-2.335.012h0c-.109.076-.219.164-.328.251l-.125.1-.017.013c-.05.038-.1.074-.148.106-.569.375-1.233.612-1.371,1.463-.08.495-.794.715-1.287.552a1.1,1.1,0,0,1-.751-1.263c.1-.54.574-1.016,1.086-.867.679.2,1.086-.164,1.56-.461.291-.182.571-.383.869-.553l.065-.037a1.693,1.693,0,0,1,1.169-2.177c0-.118,0-.237-.008-.356,0-.022,0-.045,0-.067s0-.041,0-.062c0-.047,0-.094,0-.141a1.873,1.873,0,0,0-.469-1.636.978.978,0,0,1,.232-1.423,1.133,1.133,0,0,1,1.422.039,1,1,0,0,1,.157,1.44,1.657,1.657,0,0,0-.453,1.5c0,.072,0,.142.008.212,0,.028,0,.056.007.084s.007.079.012.118.009.071.014.106.009.058.014.086.017.081.025.121a1.7,1.7,0,0,1,1.11,2.1h0c.064.053.13.1.2.151l.011.008c.062.044.125.087.188.128l.027.018c.176.114.357.221.536.329l.054.033.079.049.121.078.073.048q.064.043.127.089l.061.044c.061.046.121.093.18.143.2.17.353.028.532-.009a1.1,1.1,0,0,1,1.371.838A1.116,1.116,0,0,1,569.116,727.875Z" transform="translate(-88.522 -19.715)" fill="#fff"/>
    <path id="Caminho_3712" data-name="Caminho 3712" d="M613.727,811.336c-.109.076-.219.164-.328.251C613.507,811.5,613.618,811.412,613.727,811.336Z" transform="translate(-138.638 -105.688)" fill="#fff"/>
    <path id="Caminho_3713" data-name="Caminho 3713" d="M628.781,788.409c-.008-.04-.018-.08-.025-.121.007.04.013.08.021.12Z" transform="translate(-152.013 -85.617)" fill="#fff"/>
    <path id="Caminho_3714" data-name="Caminho 3714" d="M634.024,811.231l.036.018-.034-.02Z" transform="translate(-156.6 -105.595)" fill="#fff"/>
  </g>
</svg>
