<svg xmlns="http://www.w3.org/2000/svg" width="26.5" height="36.49" viewBox="0 0 26.5 36.49">
  <g id="Grupo_3852" data-name="Grupo 3852" transform="translate(-327.137 -169.551)">
    <path id="Caminho_116" data-name="Caminho 116" d="M352.528,206.025c-.662-.175-1.431-.332-2.167-.585a5.407,5.407,0,0,0-2.978-.124,35.307,35.307,0,0,1-14.816-.129,3.179,3.179,0,0,0-1.31.037c-.923.2-1.828.49-2.744.728-.954.248-1.533-.329-1.3-1.284a.49.49,0,0,1,.023-.067c.974-2.39.742-4.828.447-7.317a79.517,79.517,0,0,1-.3-15.548c.183-2.361.479-4.713.712-7.07a1.843,1.843,0,0,0-.07-.624c-.265-1.031-.552-2.057-.813-3.089-.241-.951.375-1.6,1.3-1.268a11.908,11.908,0,0,0,6.516.362,32.944,32.944,0,0,1,13.133.381,3.382,3.382,0,0,0,1.378-.041c.924-.2,1.827-.493,2.744-.728s1.625.407,1.259,1.251c-1.291,2.986-.542,6-.282,9.017a89.687,89.687,0,0,1-.007,15.768c-.157,1.745-.394,3.483-.579,5.226a2.013,2.013,0,0,0,.073.694c.264,1.032.555,2.056.816,3.089A.981.981,0,0,1,352.528,206.025Zm-11.093-16.976c.557,0,1.028.01,1.5,0a5.044,5.044,0,0,0,5.032-3.912,14.585,14.585,0,0,0,.164-3.249.988.988,0,0,0-1.1-.981c-1.042-.009-2.086-.013-3.125.05a4.672,4.672,0,0,0-3.072,1.464,3.556,3.556,0,0,0-.374.565,5.236,5.236,0,0,0-3.864-2.062c-.946-.042-1.9-.042-2.843-.016a1.065,1.065,0,0,0-1.146,1.171c-.023.52-.01,1.043-.006,1.564a5.185,5.185,0,0,0,5.419,5.409c.415,0,.831,0,1.306,0,0,1.412,0,2.712,0,4.012,0,1.15.341,1.67,1.08,1.652.712-.017,1.029-.518,1.03-1.63C341.436,191.762,341.435,190.44,341.435,189.049Z" fill="#fff"/>
    <path id="Caminho_117" data-name="Caminho 117" d="M380.614,264.119c2.948-.557,4.879,1.062,4.491,3.716C382.384,268.538,380.353,266.877,380.614,264.119Z" transform="translate(-45.847 -81.015)" fill="#fff"/>
    <path id="Caminho_118" data-name="Caminho 118" d="M427.8,267.958c-.483-2.634,1.433-4.267,4.4-3.809C432.837,266.574,430.955,268.218,427.8,267.958Z" transform="translate(-86.271 -81.068)" fill="#fff"/>
  </g>
</svg>
