<svg xmlns="http://www.w3.org/2000/svg" width="29" height="29.043" viewBox="0 0 29 29.043">
  <g id="Grupo_3867" data-name="Grupo 3867" transform="translate(-297.877 -179.844)">
    <path id="Caminho_119" data-name="Caminho 119" d="M308.76,254.594a4.125,4.125,0,0,0,.693,4.281,4.282,4.282,0,0,0-2.234,3.3c-.381,1.711-.865,3.4-1.3,5.1a2.615,2.615,0,0,0,2.214,3.5l.3.056c0,.193,0,.394,0,.595,0,.774-.02,1.55.016,2.323.035.75-.175,1.1-.918,1.122-1.529.04-3.061.046-4.59,0a1.617,1.617,0,0,1-1.479-1.709c-.013-1.549,0-3.1-.005-4.648v-.7c-.475,0-.9,0-1.328,0a2.027,2.027,0,0,1-2.152-2.759q1.013-3.974,2.028-7.949a3.4,3.4,0,0,1,3.551-2.788c1.134-.007,2.268-.03,3.4.011A15.93,15.93,0,0,1,308.76,254.594Z" transform="translate(0 -66.012)" fill="#fff"/>
    <path id="Caminho_120" data-name="Caminho 120" d="M459.474,267.77c0,1.754,0,3.415,0,5.076,0,1.406-.626,2.02-2.046,2.021-1.228,0-2.456.006-3.684-.005a2.583,2.583,0,0,1-.72-.112.731.731,0,0,1-.576-.914c.091-.99.026-1.995.026-3.017.241-.052.42-.092.6-.129a2.551,2.551,0,0,0,2.01-3.105c-.517-2.125-1.077-4.24-1.622-6.359a3.73,3.73,0,0,0-1.969-2.379,4.077,4.077,0,0,0,.684-4.243,12.3,12.3,0,0,1,1.69-.3c1.208-.044,2.418-.027,3.627-.01a3.375,3.375,0,0,1,3.409,2.681q1.067,4.136,2.1,8.28a1.955,1.955,0,0,1-1.872,2.508C460.608,267.791,460.081,267.77,459.474,267.77Z" transform="translate(-136.198 -65.995)" fill="#fff"/>
    <path id="Caminho_121" data-name="Caminho 121" d="M385.888,311.661c0,1.2,0,2.334,0,3.463,0,1.362-.4,1.764-1.734,1.764q-1.189,0-2.379,0c-1.034,0-1.508-.477-1.513-1.53-.005-1.206,0-2.411,0-3.7-.371,0-.7.005-1.036,0a1.487,1.487,0,0,1-1.54-1.961q.761-3.044,1.548-6.082a2.481,2.481,0,0,1,2.474-1.935q1.359-.019,2.719,0a2.482,2.482,0,0,1,2.483,1.925q.8,3.063,1.563,6.136a1.477,1.477,0,0,1-1.485,1.917C386.649,311.67,386.311,311.661,385.888,311.661Z" transform="translate(-70.703 -108.015)" fill="#fff"/>
    <path id="Caminho_122" data-name="Caminho 122" d="M329.524,183.636a3.778,3.778,0,1,1,7.557-.021,3.778,3.778,0,1,1-7.557.021Z" transform="translate(-28.059)" fill="#fff"/>
    <path id="Caminho_123" data-name="Caminho 123" d="M462.714,183.62a3.78,3.78,0,1,1-3.781-3.776A3.783,3.783,0,0,1,462.714,183.62Z" transform="translate(-139.445 0)" fill="#fff"/>
    <path id="Caminho_124" data-name="Caminho 124" d="M403.739,246.682a2.789,2.789,0,1,1-2.8,2.806A2.794,2.794,0,0,1,403.739,246.682Z" transform="translate(-91.376 -59.26)" fill="#fff"/>
  </g>
</svg>
