<svg xmlns="http://www.w3.org/2000/svg" width="24.447" height="24.377" viewBox="0 0 24.447 24.377">
  <g id="Grupo_3850" data-name="Grupo 3850" transform="translate(-304.561 -173.258)">
    <path id="Caminho_113" data-name="Caminho 113" d="M311.842,173.782a10.014,10.014,0,0,0-1.586,5.324,8.363,8.363,0,0,0,1.792,5.568c.407.525.8,1.062,1.194,1.6,2.128,2.866,1.661,7.132-.429,9.88a.733.733,0,0,1-.566.193,6.481,6.481,0,0,1-3.642-1.577,10.967,10.967,0,0,1-3.611-6.2,14.171,14.171,0,0,1,1.681-11.056,7.826,7.826,0,0,1,4.593-3.6C311.412,173.868,311.561,173.843,311.842,173.782Z" transform="translate(0 -0.47)" fill="#fff"/>
    <path id="Caminho_114" data-name="Caminho 114" d="M376.666,192.043a8.155,8.155,0,0,1-5.308,3.809c.124-.22.2-.354.277-.491,1.686-3.085,2.016-6.225.279-9.4a15.6,15.6,0,0,0-1.631-2.284c-2.519-3.1-1.674-7.688-.231-9.8a1.229,1.229,0,0,1,1.453-.577,7.674,7.674,0,0,1,4.693,3.13,13.363,13.363,0,0,1,2.515,7.795,1.405,1.405,0,0,1-.185.622c-.852,1.723-1.715,3.441-2.574,5.161C375.447,191.031,375.609,191.523,376.666,192.043Z" transform="translate(-57.555 0)" fill="#fff"/>
    <path id="Caminho_115" data-name="Caminho 115" d="M450.391,263.108c0-.9-.012-1.808.005-2.711.008-.444-.189-.615-.613-.612q-1.816.01-3.632,0c-.58,0-.656-.118-.4-.623q2.254-4.523,4.52-9.04a1.765,1.765,0,0,1,.361-.375,1.547,1.547,0,0,1,.213.516c.016,1.756.008,3.512.011,5.268,0,.672.069.74.727.742,1.159,0,2.319,0,3.478,0,.621,0,.7.13.414.7q-2.235,4.478-4.482,8.95c-.078.154-.269.25-.407.373a1.84,1.84,0,0,1-.183-.531C450.381,264.881,450.391,263.995,450.391,263.108Z" transform="translate(-126.621 -68.665)" fill="#fff"/>
  </g>
</svg>
