<svg xmlns="http://www.w3.org/2000/svg" width="26.398" height="24.016" viewBox="0 0 26.398 24.016">
  <g id="Grupo_3855" data-name="Grupo 3855" transform="translate(-847.539 -442.67)">
    <path id="Caminho_21" data-name="Caminho 21" d="M850.611,519.693a4.909,4.909,0,0,1,.506,0,1.907,1.907,0,0,0,2.131-.985,3.36,3.36,0,0,1,4.107-1.161,3.61,3.61,0,0,1-.675,6.905,3.549,3.549,0,0,1-3.814-1.869.715.715,0,0,0-.765-.469c-.974.025-1.95.01-2.925.008-1,0-1.547-.44-1.539-1.23s.554-1.2,1.567-1.2Z" transform="translate(-0.087 -66.222)" fill="#2d2d2d"/>
    <path id="Caminho_22" data-name="Caminho 22" d="M984.515,596.888c-.468,0-.937.021-1.4-.006a.825.825,0,0,0-.9.52,3.381,3.381,0,0,1-3.377,1.879,3.545,3.545,0,0,1-3.2-2.5,3.619,3.619,0,0,1,2.039-4.414,3.573,3.573,0,0,1,4.566,1.641.749.749,0,0,0,.805.49c1.029-.032,2.059-.015,3.089-.009a1.2,1.2,0,0,1,1.337,1.191,1.177,1.177,0,0,1-1.318,1.2C985.6,596.9,985.058,596.888,984.515,596.888Z" transform="translate(-113.524 -132.604)" fill="#2d2d2d"/>
    <path id="Caminho_23" data-name="Caminho 23" d="M1025.307,446.312a3.567,3.567,0,0,1-3.636,3.566,3.609,3.609,0,0,1-3.569-3.595,3.652,3.652,0,0,1,3.628-3.613A3.6,3.6,0,0,1,1025.307,446.312Z" transform="translate(-151.37 0)" fill="#2d2d2d"/>
    <path id="Caminho_24" data-name="Caminho 24" d="M855.965,466.515q-3.54,0-7.08,0a1.229,1.229,0,0,1-1.3-.859,1.177,1.177,0,0,1,1.113-1.528c.673-.029,1.348-.01,2.022-.01h11.912c.187,0,.375-.006.562.007a1.182,1.182,0,0,1,1.147,1.21,1.2,1.2,0,0,1-1.188,1.177c-.43.018-.861,0-1.292,0Z" transform="translate(0 -19.027)" fill="#2d2d2d"/>
    <path id="Caminho_25" data-name="Caminho 25" d="M981.448,541.062c-1.555,0-3.11.005-4.665,0a1.206,1.206,0,0,1-1.216-.825A1.14,1.14,0,0,1,976,538.89a1.731,1.731,0,0,1,.841-.248q4.664-.026,9.329-.007a1.217,1.217,0,1,1,0,2.424C984.6,541.071,983.022,541.062,981.448,541.062Z" transform="translate(-113.56 -85.16)" fill="#2d2d2d"/>
    <path id="Caminho_26" data-name="Caminho 26" d="M853.617,615.823c-1.536,0-3.072,0-4.608,0-.877,0-1.383-.452-1.381-1.2s.528-1.2,1.389-1.2q4.608,0,9.215,0c.859,0,1.381.464,1.38,1.205s-.506,1.187-1.388,1.191C856.689,615.827,855.153,615.823,853.617,615.823Z" transform="translate(-0.079 -151.538)" fill="#2d2d2d"/>
  </g>
</svg>
