<svg xmlns="http://www.w3.org/2000/svg" width="7.951" height="14.395" viewBox="0 0 7.951 14.395">
  <g id="Grupo_3860" data-name="Grupo 3860" transform="translate(-461.396 -712.795)">
    <path id="União_1" data-name="União 1" d="M.587,9.167a.511.511,0,0,1-.58-.584c0-1.329-.019-2.657.006-3.987a2.531,2.531,0,0,1,1.339-2.3A1.961,1.961,0,0,0,2.492.269c0-.079,0-.16,0-.269H3.965a3.287,3.287,0,0,0,.208.669,4.941,4.941,0,0,0,.663.942c.383.408.817.767,1.232,1.144a2.577,2.577,0,0,1,.884,1.991c0,1.274,0,2.55,0,3.824,0,.42-.175.6-.59.6H.587Zm.9-.973c.1.027.233.148.229.225a.34.34,0,0,1-.185.227.345.345,0,0,0,.187-.227c0-.077-.135-.2-.231-.225a.715.715,0,0,0-.185-.021A.715.715,0,0,1,1.491,8.194ZM1,8.184l.084,0L1,8.184ZM.518,7.708a2.289,2.289,0,0,0-.026.35,2.289,2.289,0,0,1,.026-.35c.015-.1.154-.182.237-.272.08.092.2.171.231.274a.583.583,0,0,1,.021.158.583.583,0,0,0-.021-.158c-.032-.1-.15-.182-.231-.274C.672,7.526.533,7.606.518,7.708Zm2.729-.4c.034.22-.152.6.246.594.362,0,.212-.364.237-.584a4.044,4.044,0,0,0,0-.452,3.772,3.772,0,0,0,.639-.005A2.034,2.034,0,0,0,5.875,4.3a.509.509,0,0,0-.315-.276,2.015,2.015,0,0,0-1.909.491l-.177.154A2.071,2.071,0,0,0,1.527,4c-.387.071-.439.129-.494.524a2.039,2.039,0,0,0,.519,1.728,1.674,1.674,0,0,0,1.69.578A3.113,3.113,0,0,0,3.247,7.306Z" transform="translate(461.895 717.521)" fill="#fff" stroke="rgba(0,0,0,0)" stroke-miterlimit="10" stroke-width="1"/>
    <path id="Caminho_3700" data-name="Caminho 3700" d="M488.745,712.8c.8,0,1.568,0,2.333,0a6.741,6.741,0,0,1,2.224.224,1.96,1.96,0,0,1,1.27,1.018c.157.344.061.5-.31.5-.551,0-1.1,0-1.652,0a.773.773,0,0,0-.885.875c0,.108,0,.216,0,.367-.479,0-.944,0-1.408-.005-.042,0-.107-.066-.119-.112a1.47,1.47,0,0,0-1.24-1.067c-.169-.037-.219-.1-.216-.268C488.751,713.831,488.745,713.336,488.745,712.8Z" transform="translate(-25.853 0)" fill="#fff"/>
    <path id="Caminho_3701" data-name="Caminho 3701" d="M462.446,712.838v1.736c-.248,0-.481.006-.714,0a.249.249,0,0,1-.261-.281q0-.583,0-1.166a.249.249,0,0,1,.257-.285C461.961,712.832,462.195,712.838,462.446,712.838Z" transform="translate(-0.062 -0.039)" fill="#fff"/>
    <path id="Caminho_3702" data-name="Caminho 3702" d="M462.394,753.942c.124,0,.213,0,.3,0,.147-.007.208.049.206.205-.007.569.009,1.138-.013,1.706a.482.482,0,0,1-.209.331c-.268.165-.56.289-.842.43-.155.077-.308.088-.4-.083s.023-.287.172-.364c.2-.1.4-.209.606-.3a.267.267,0,0,0,.181-.289C462.389,755.048,462.394,754.516,462.394,753.942Z" transform="translate(0 -38.914)" fill="#fff"/>
    <path id="Caminho_3703" data-name="Caminho 3703" d="M516.623,777.833v-.7h1.452v.7Z" transform="translate(-52.223 -60.845)" fill="#fff"/>
    <path id="Caminho_3705" data-name="Caminho 3705" d="M499.64,883.587a.893.893,0,0,1-.745-.113,1.626,1.626,0,0,1-.755-1.571.268.268,0,0,1,.138-.187,1.486,1.486,0,0,1,1.757,1.391c-.235-.194-.468-.4-.715-.581a.376.376,0,0,0-.275-.062c-.069.016-.167.121-.164.182a.437.437,0,0,0,.14.264c.219.2.452.392.68.587Z" transform="translate(-34.727 -159.718)" fill="#fff"/>
    <path id="Caminho_3706" data-name="Caminho 3706" d="M540.537,883.855c.208-.19.406-.391.626-.564.138-.108.282-.2.17-.387s-.272-.133-.422-.041c-.107.066-.21.139-.314.209-.211-.334-.2-.4.079-.645a1.545,1.545,0,0,1,1.2-.386.308.308,0,0,1,.222.168,1.541,1.541,0,0,1-1.2,1.747,1.809,1.809,0,0,1-.315-.023Z" transform="translate(-74.757 -160.057)" fill="#fff"/>
  </g>
</svg>
