<svg xmlns="http://www.w3.org/2000/svg" width="17.105" height="31.5" viewBox="0 0 17.105 31.5">
  <g id="Grupo_3851" data-name="Grupo 3851" transform="translate(-461.406 -712.795)">
    <path id="União_1" data-name="União 1" d="M1.311,20.453a1.139,1.139,0,0,1-1.295-1.3c0-2.966-.042-5.928.014-8.9A5.647,5.647,0,0,1,3.017,5.12,4.375,4.375,0,0,0,5.561.6c-.009-.176,0-.358,0-.6H8.847a7.333,7.333,0,0,0,.465,1.493,11.024,11.024,0,0,0,1.479,2.1c.855.911,1.822,1.711,2.749,2.552a5.749,5.749,0,0,1,1.973,4.441c0,2.842,0,5.689,0,8.533,0,.938-.39,1.332-1.316,1.332l-8.59,0Q3.459,20.455,1.311,20.453Zm2.017-2.171c.214.06.52.331.511.5a.758.758,0,0,1-.414.507.769.769,0,0,0,.418-.507c0-.172-.3-.443-.515-.5a1.6,1.6,0,0,0-.413-.046A1.6,1.6,0,0,1,3.327,18.282ZM2.22,18.259c.064,0,.126,0,.187,0-.061,0-.123,0-.187,0ZM1.156,17.2a5.108,5.108,0,0,0-.058.781,5.108,5.108,0,0,1,.058-.781c.034-.226.344-.406.529-.607.179.2.444.381.514.611a1.3,1.3,0,0,1,.046.352A1.3,1.3,0,0,0,2.2,17.2c-.071-.23-.335-.406-.514-.611C1.5,16.791,1.19,16.971,1.156,17.2Zm6.089-.9c.076.491-.339,1.334.549,1.324.808,0,.474-.812.528-1.3a9.022,9.022,0,0,0,.009-1.009A8.416,8.416,0,0,0,9.756,15.3a4.538,4.538,0,0,0,3.352-5.7,1.136,1.136,0,0,0-.7-.615,4.5,4.5,0,0,0-4.259,1.1c-.13.114-.26.226-.394.344a4.62,4.62,0,0,0-4.345-1.5c-.863.159-.98.288-1.1,1.17a4.549,4.549,0,0,0,1.157,3.856,3.736,3.736,0,0,0,3.771,1.29A6.945,6.945,0,0,0,7.245,16.3Z" transform="translate(462.497 723.34)" fill="#fff" stroke="rgba(0,0,0,0)" stroke-miterlimit="10" stroke-width="1"/>
    <path id="Caminho_3700" data-name="Caminho 3700" d="M488.749,712.8c1.788,0,3.5.009,5.206,0a15.044,15.044,0,0,1,4.961.5,4.373,4.373,0,0,1,2.833,2.272c.351.767.136,1.105-.692,1.108-1.229,0-2.457,0-3.686,0a1.725,1.725,0,0,0-1.974,1.952c0,.241,0,.481,0,.82-1.07,0-2.106.007-3.142-.011-.093,0-.238-.147-.266-.25a3.28,3.28,0,0,0-2.766-2.38c-.378-.082-.488-.228-.481-.6C488.763,715.108,488.749,714,488.749,712.8Z" transform="translate(-24.028 0)" fill="#fff"/>
    <path id="Caminho_3701" data-name="Caminho 3701" d="M463.646,712.841v3.873c-.553,0-1.073.013-1.592,0a.556.556,0,0,1-.582-.627q0-1.3,0-2.6a.554.554,0,0,1,.573-.635C462.565,712.828,463.085,712.841,463.646,712.841Z" transform="translate(-0.058 -0.036)" fill="#fff"/>
    <path id="Caminho_3702" data-name="Caminho 3702" d="M463.612,753.943c.276,0,.474.008.671,0,.327-.016.465.11.46.458-.016,1.269.019,2.539-.029,3.806a1.076,1.076,0,0,1-.466.739c-.6.368-1.249.646-1.879.96-.346.172-.688.2-.888-.184-.211-.4.051-.641.384-.812.448-.229.892-.466,1.352-.667a.6.6,0,0,0,.4-.646C463.6,756.411,463.612,755.225,463.612,753.943Z" transform="translate(0 -36.166)" fill="#fff"/>
    <path id="Caminho_3703" data-name="Caminho 3703" d="M516.623,778.7v-1.572h3.24V778.7Z" transform="translate(-48.536 -56.549)" fill="#fff"/>
    <path id="Caminho_3705" data-name="Caminho 3705" d="M501.506,885.944a1.992,1.992,0,0,1-1.663-.252,3.628,3.628,0,0,1-1.684-3.5.6.6,0,0,1,.308-.417c1.763-.55,4.095,1.317,3.92,3.1-.525-.432-1.043-.886-1.595-1.3a.839.839,0,0,0-.613-.138c-.153.035-.372.27-.365.406a.975.975,0,0,0,.312.588c.488.456,1.009.876,1.517,1.31Z" transform="translate(-32.276 -148.441)" fill="#fff"/>
    <path id="Caminho_3706" data-name="Caminho 3706" d="M540.644,886.1c.463-.423.9-.873,1.4-1.259.307-.24.63-.437.379-.863s-.607-.3-.941-.092c-.239.147-.468.31-.7.466-.47-.746-.456-.9.176-1.44a3.446,3.446,0,0,1,2.676-.862.687.687,0,0,1,.5.375,3.438,3.438,0,0,1-2.677,3.9,4.019,4.019,0,0,1-.7-.051Z" transform="translate(-69.479 -148.756)" fill="#fff"/>
  </g>
</svg>
