<svg xmlns="http://www.w3.org/2000/svg" width="16.297" height="10.975" viewBox="0 0 16.297 10.975">
  <g id="Grupo_3862" data-name="Grupo 3862" transform="translate(-456.178 -693.27)">
    <path id="Caminho_3737" data-name="Caminho 3737" d="M490.159,715.509c-.321.423-.624.786-.884,1.177a2.561,2.561,0,0,0-.332.751.989.989,0,0,0,1.286,1.284,3.97,3.97,0,0,0,.874-.458c.384-.224.751-.481,1.145-.683a.468.468,0,0,1,.415.082q2.091,1.885,4.159,3.8a.663.663,0,0,1,.137.995c-.271.3-.671.268-1.028-.077q-.994-.96-1.986-1.922c-.05-.048-.091-.116-.15-.141a1.736,1.736,0,0,0-.3-.068c.02.1.008.229.066.293.217.238.457.454.689.678.372.36.747.718,1.117,1.081s.4.76.093,1.055a.714.714,0,0,1-1.062-.116c-.546-.562-1.087-1.127-1.631-1.691-.048-.05-.088-.119-.146-.144a1.325,1.325,0,0,0-.272-.06c.014.1-.008.228.046.289.307.343.633.669.952,1,.175.183.355.362.524.551a.653.653,0,1,1-.938.906c-.516-.51-1.025-1.027-1.537-1.54-.057-.057-.105-.135-.174-.164a.937.937,0,0,0-.266-.032c.013.089-.005.206.044.263.181.208.385.4.58.591.236.236.473.471.708.709.309.313.35.6.129.845s-.5.248-.832-.005c-.784-.6-1.593-1.181-2.332-1.838-1.066-.947-2.076-1.957-3.114-2.936a.413.413,0,0,1-.116-.487c.388-1.239.755-2.485,1.142-3.724.032-.1.159-.249.244-.25C488.317,715.5,489.223,715.509,490.159,715.509Z" transform="translate(-27.753 -20.7)" fill="#fff"/>
    <path id="Caminho_3738" data-name="Caminho 3738" d="M536.134,703.677a5.954,5.954,0,0,1,.659.173c1.071.417,2.141.839,3.2,1.279a.67.67,0,0,1,.321.354c.467,1.236.916,2.479,1.371,3.72.174.474.155.545-.246.871-.374.3-.5.3-.846-.014-1.342-1.229-2.689-2.452-4.022-3.692a.541.541,0,0,0-.678-.147,14.468,14.468,0,0,0-1.345.812,1.648,1.648,0,0,1-1.01.378.55.55,0,0,1-.6-.6,1.616,1.616,0,0,1,.165-.693,4.9,4.9,0,0,1,2.287-2.22A5.417,5.417,0,0,1,536.134,703.677Z" transform="translate(-71.453 -9.687)" fill="#fff"/>
    <path id="Caminho_3739" data-name="Caminho 3739" d="M645.169,711.655h-1.034a.523.523,0,0,1-.522-.376q-.936-2.54-1.866-5.082a.49.49,0,0,1,.278-.688,7.213,7.213,0,0,1,3.037-.526.419.419,0,0,1,.108.04Z" transform="translate(-172.696 -10.897)" fill="#fff"/>
    <path id="Caminho_3740" data-name="Caminho 3740" d="M456.178,693.278a5.677,5.677,0,0,1,2.822.562c.279.136.31.391.221.683-.452,1.472-.892,2.948-1.34,4.422-.324,1.065-.236,1-1.341.994h-.362Z" transform="translate(0 0)" fill="#fff"/>
  </g>
</svg>
