<svg xmlns="http://www.w3.org/2000/svg" width="12.955" height="12.963" viewBox="0 0 12.955 12.963">
  <g id="Grupo_3858" data-name="Grupo 3858" transform="translate(-456.145 -637.965)">
    <path id="Caminho_3731" data-name="Caminho 3731" d="M461.006,712.56a2.426,2.426,0,0,1-.674,3.312c-.178.779-.393,1.55-.59,2.325a1.17,1.17,0,0,0,.994,1.579l.124.026q0,.515,0,1.031c0,.093,0,.186.006.278.03.327-.081.485-.418.493q-1.012.025-2.024,0a.722.722,0,0,1-.676-.749c-.007-.7,0-1.4,0-2.1v-.3c-.236,0-.445,0-.653,0a.892.892,0,0,1-.909-1.19q.459-1.812.921-3.623a1.511,1.511,0,0,1,1.537-1.21c.531-.006,1.063-.014,1.594,0A6.045,6.045,0,0,1,461.006,712.56Z" transform="translate(0 -70.689)" fill="#fff"/>
    <path id="Caminho_3732" data-name="Caminho 3732" d="M610.065,714.437a1.845,1.845,0,0,0,.306-1.881,4.321,4.321,0,0,1,.7-.139c.564-.02,1.13-.016,1.7,0a1.482,1.482,0,0,1,1.474,1.156q.5,1.88.962,3.768a.867.867,0,0,1-.8,1.084c-.25.017-.5,0-.783,0,0,.191,0,.348,0,.506,0,.633.005,1.265,0,1.9a.74.74,0,0,1-.767.766q-.924.008-1.847,0a1.074,1.074,0,0,1-.339-.082c-.152-.055-.2-.155-.184-.332.032-.351.02-.707.026-1.061,0-.108,0-.216,0-.331l.264-.056a1.14,1.14,0,0,0,.894-1.368c-.232-.966-.484-1.927-.738-2.887A1.69,1.69,0,0,0,610.065,714.437Z" transform="translate(-146.131 -70.67)" fill="#fff"/>
    <path id="Caminho_3733" data-name="Caminho 3733" d="M537.033,764.272c-.2,0-.357.006-.516,0a.654.654,0,0,1-.645-.829q.344-1.41.72-2.812a1.084,1.084,0,0,1,1.065-.812c.413-.007.826-.006,1.239,0a1.1,1.1,0,0,1,1.1.838q.365,1.378.706,2.763a.659.659,0,0,1-.667.853c-.15,0-.3,0-.487,0v.639c0,.362.006.725,0,1.087a.571.571,0,0,1-.624.607c-.413,0-.826,0-1.239,0a.578.578,0,0,1-.646-.635c-.006-.463,0-.927,0-1.391Z" transform="translate(-75.672 -115.682)" fill="#fff"/>
    <path id="Caminho_3734" data-name="Caminho 3734" d="M487.835,639.647a1.687,1.687,0,1,1,3.374.013,1.687,1.687,0,1,1-3.374-.013Z" transform="translate(-30.087 0)" fill="#fff"/>
    <path id="Caminho_3735" data-name="Caminho 3735" d="M616.883,639.642a1.688,1.688,0,1,1-1.7-1.677A1.689,1.689,0,0,1,616.883,639.642Z" transform="translate(-149.4)" fill="#fff"/>
    <path id="Caminho_3736" data-name="Caminho 3736" d="M560.518,704.816a1.245,1.245,0,1,1-1.242,1.236A1.247,1.247,0,0,1,560.518,704.816Z" transform="translate(-97.913 -63.468)" fill="#fff"/>
  </g>
</svg>
