<svg id="Grupo_3856" data-name="Grupo 3856" xmlns="http://www.w3.org/2000/svg" width="8.502" height="10.549" viewBox="0 0 8.502 10.549">
  <path id="Caminho_3717" data-name="Caminho 3717" d="M498.2,680.82c0,.472-.032.946.007,1.414a1.9,1.9,0,0,0,1.83,1.7.4.4,0,0,0,.46-.346.391.391,0,0,0-.381-.428,1.169,1.169,0,0,1-1.156-1.348c0-.772.028-1.546-.021-2.316a2.7,2.7,0,0,0-5.379-.016c-.016.188-.01.377-.026.565a1.13,1.13,0,0,1-1,1.04c-.06.007-.12.009-.179.02a.381.381,0,0,0-.342.433.386.386,0,0,0,.444.334,1.9,1.9,0,0,0,1.567-.894,2.151,2.151,0,0,0,.308-1.228,1.922,1.922,0,0,1,3.835-.245c.03.435,0,.875,0,1.312Z" transform="translate(-492.004 -675.445)" fill="#fff"/>
  <path id="Caminho_3718" data-name="Caminho 3718" d="M500.373,652.291a6.732,6.732,0,0,0-.231-2.289,4.252,4.252,0,0,0-8.231.812,5.7,5.7,0,0,0-.036.8.386.386,0,0,0,.387.423c.222,0,.363-.164.39-.424a7.063,7.063,0,0,1,.153-1.218,3.462,3.462,0,0,1,6.776.8c.035.745.011,1.492.015,2.238,0,.086,0,.172,0,.257a.393.393,0,0,0,.4.41.384.384,0,0,0,.373-.412C500.38,653.218,500.373,652.755,500.373,652.291Z" transform="translate(-491.873 -647.148)" fill="#fff"/>
  <path id="Caminho_3719" data-name="Caminho 3719" d="M557.061,708.544a4.769,4.769,0,0,0-.055-.635,1.151,1.151,0,0,0-1.183-.872,1.138,1.138,0,0,0-1.08.993c-.04.331-.024.672-.091,1a2.659,2.659,0,0,1-2.44,2.114c-.418.029-.593.16-.572.43s.218.377.631.345a3.471,3.471,0,0,0,3.23-3.444c0-.094,0-.189.006-.283a.37.37,0,0,1,.379-.372.365.365,0,0,1,.376.374,4.267,4.267,0,0,1-2.693,4.219c-.108.045-.254.1-.294.183a.526.526,0,0,0-.021.421.483.483,0,0,0,.382.171,1.4,1.4,0,0,0,.5-.18A5.045,5.045,0,0,0,557.061,708.544Z" transform="translate(-551.637 -703.952)" fill="#fff"/>
  <path id="Caminho_3720" data-name="Caminho 3720" d="M494.888,799.146a1.715,1.715,0,0,0,.256,0,.356.356,0,0,0,.33-.366.349.349,0,0,0-.307-.384c-.185-.032-.377-.027-.561-.063a2.733,2.733,0,0,1-1.817-1.24.588.588,0,0,0-.318-.263.423.423,0,0,0-.365.149.53.53,0,0,0-.006.444,3.349,3.349,0,0,0,2.055,1.6c.237.068.486.1.729.144Z" transform="translate(-486.982 -789.117)" fill="#fff"/>
  <path id="Caminho_3721" data-name="Caminho 3721" d="M550.215,820.281c.205.194.411.4.63.59a.4.4,0,0,0,.592-.006.416.416,0,0,0-.091-.587c-.254-.253-.5-.515-.738-.782a.412.412,0,0,0-.606-.08q-.669.426-1.352.83c-.231.137-.322.32-.229.524a.38.38,0,0,0,.562.173C549.395,820.736,549.795,820.507,550.215,820.281Z" transform="translate(-545.931 -810.451)" fill="#fff"/>
</svg>
