<svg xmlns="http://www.w3.org/2000/svg" width="20.201" height="29.041" viewBox="0 0 20.201 29.041">
  <g id="Grupo_3849" data-name="Grupo 3849" transform="translate(-274.207 -180.576)">
    <path id="Caminho_107" data-name="Caminho 107" d="M329.312,180.577c.653,1.824,1.4,3.621,1.944,5.477a36.3,36.3,0,0,1,.669,19.08,19.541,19.541,0,0,1-1.224,3.171,3.1,3.1,0,0,1-.768.962,1.015,1.015,0,0,1-1.551-.017,7.455,7.455,0,0,1-1.194-1.789,20.259,20.259,0,0,1-1.556-6.618,38.722,38.722,0,0,1,3.229-19.7c.081-.182.183-.354.275-.531Z" transform="translate(-44.863)" fill="#fff"/>
    <path id="Caminho_108" data-name="Caminho 108" d="M366.892,184.053c3.711,3.275,6.83,6.966,8.094,11.841a14.4,14.4,0,0,1-3.009,13.674,8.271,8.271,0,0,1-4.291,2.7,15.368,15.368,0,0,0,1.9-5.372,38.743,38.743,0,0,0-1.545-19.786C367.69,186.083,367.277,185.073,366.892,184.053Z" transform="translate(-81.151 -3.043)" fill="#fff"/>
    <path id="Caminho_109" data-name="Caminho 109" d="M282,212.252a8.458,8.458,0,0,1-3.44-1.94,13.266,13.266,0,0,1-4.163-8.122c-.777-5.041.95-9.37,3.873-13.34a28.169,28.169,0,0,1,4.562-4.841,40.428,40.428,0,0,0-3.237,14.052C279.4,202.937,279.728,207.733,282,212.252Z" transform="translate(0 -3.005)" fill="#fff"/>
  </g>
</svg>
