<svg xmlns="http://www.w3.org/2000/svg" width="27.666" height="30.73" viewBox="0 0 27.666 30.73">
  <g id="Grupo_3848" data-name="Grupo 3848" transform="matrix(0.891, 0.454, -0.454, 0.891, -232.568, -338.301)">
    <path id="Caminho_102" data-name="Caminho 102" d="M444.685,190.573c.835.623,1.645,1.131,2.341,1.764a16.6,16.6,0,0,1,4.093,6.274,20.5,20.5,0,0,1,1.729,9.4,9.5,9.5,0,0,1-3.833,7.14,3.533,3.533,0,0,1-2.977.639c.615-.9,1.266-1.734,1.791-2.641a12.981,12.981,0,0,0,1.815-6.893,27.2,27.2,0,0,0-2.355-11.2C446.574,193.545,445.615,192.155,444.685,190.573Z" transform="translate(-63.731)" fill="#fff"/>
    <path id="Caminho_103" data-name="Caminho 103" d="M377.912,216.244a3.677,3.677,0,0,1-3.3-.793A9.647,9.647,0,0,1,371,207.642a21.826,21.826,0,0,1,4.638-13.521,9.221,9.221,0,0,1,3.727-2.985c-.311.4-.514.647-.71.9a21.614,21.614,0,0,0-3.975,9.907,22.723,22.723,0,0,0-.333,6.646,13.876,13.876,0,0,0,3.264,7.278C377.7,215.971,377.777,216.075,377.912,216.244Z" transform="translate(0 -0.487)" fill="#fff"/>
    <path id="Caminho_104" data-name="Caminho 104" d="M427.561,210.958c1.747,7.357,2.633,14.715,0,22.073C424.926,225.675,425.816,218.316,427.561,210.958Z" transform="translate(-47.485 -17.632)" fill="#fff"/>
    <path id="Caminho_105" data-name="Caminho 105" d="M406.3,210.963c-1.579,7.152-2.377,14.225-.322,21.353a11.832,11.832,0,0,1-2.779-4.942,17.492,17.492,0,0,1-.236-7.027,22.75,22.75,0,0,1,2.964-8.954c.067-.116.138-.231.215-.341C406.168,211.018,406.22,211.008,406.3,210.963Z" transform="translate(-27.44 -17.636)" fill="#fff"/>
    <path id="Caminho_106" data-name="Caminho 106" d="M447.64,211.179a23.3,23.3,0,0,1,3.168,15.842,11.715,11.715,0,0,1-2.9,5.477C449.956,225.354,449.153,218.264,447.64,211.179Z" transform="translate(-66.287 -17.823)" fill="#fff"/>
  </g>
</svg>
