<svg xmlns="http://www.w3.org/2000/svg" width="11.98" height="11.98" viewBox="0 0 11.98 11.98">
  <g id="Grupo_3861" data-name="Grupo 3861" transform="translate(-436.654 -628.959)">
    <path id="Caminho_3722" data-name="Caminho 3722" d="M499.37,628.959a3.224,3.224,0,0,1,3.391,2.885,4.7,4.7,0,0,1-.492,2.533,16.129,16.129,0,0,1-2.348,3.559.35.35,0,0,1-.582.029,13.767,13.767,0,0,1-2.687-4.4,3.585,3.585,0,0,1,.525-3.457A2.861,2.861,0,0,1,499.37,628.959Zm.232,4.214a1.047,1.047,0,0,0,1.068-1.039,1.054,1.054,0,1,0-1.068,1.039Z" transform="translate(-56.98)" fill="#fff"/>
    <path id="Caminho_3723" data-name="Caminho 3723" d="M521.667,767.479l.624-.32c.179.216.354.433.534.645a1.055,1.055,0,0,0,1.695,0,18.392,18.392,0,0,0,2.043-2.925c.064-.116.131-.18.269-.165a2.415,2.415,0,0,0,.327,0,.373.373,0,0,1,.38.253l1.092,2.546c-.07.039-.135.079-.2.114-1.389.72-2.779,1.436-4.164,2.163a.249.249,0,0,1-.354-.055c-.689-.7-1.388-1.389-2.082-2.083C521.781,767.6,521.735,767.552,521.667,767.479Z" transform="translate(-81.035 -129.402)" fill="#fff"/>
    <path id="Caminho_3724" data-name="Caminho 3724" d="M442.389,834.489a1.768,1.768,0,0,1-.358.083q-2.479.007-4.957,0c-.361,0-.494-.219-.378-.557a.947.947,0,0,1,.529-.571c.852-.418,1.694-.857,2.537-1.294a.252.252,0,0,1,.357.046c.693.707,1.4,1.4,2.1,2.1C442.265,834.348,442.309,834.4,442.389,834.489Z" transform="translate(0 -193.637)" fill="#fff"/>
    <path id="Caminho_3725" data-name="Caminho 3725" d="M454.335,765.89l-3.489,1.782c.041-.114.063-.186.092-.254q.658-1.534,1.319-3.066a.733.733,0,0,1,.9-.337.216.216,0,0,1,.075.084C453.595,764.688,453.957,765.277,454.335,765.89Z" transform="translate(-13.527 -128.689)" fill="#fff"/>
    <path id="Caminho_3726" data-name="Caminho 3726" d="M592.824,838.578c.253.591.508,1.157.735,1.735.089.226-.1.435-.374.437-.616,0-1.232,0-1.848,0h-2.611l-.011-.043Z" transform="translate(-144.946 -199.813)" fill="#fff"/>
  </g>
</svg>
