<svg id="Grupo_3845" data-name="Grupo 3845" xmlns="http://www.w3.org/2000/svg" width="100" height="109.002" viewBox="0 0 100 109.002">
  <path id="Caminho_27" data-name="Caminho 27" d="M543.336,197.689a40.17,40.17,0,0,1-8.438-1.38,32.215,32.215,0,0,1-5.368-2.135A11.727,11.727,0,0,1,525.267,190a58.678,58.678,0,0,1-5.273-9.546c-1.2-2.642-2.264-5.341-3.222-8.078-.93-2.659-1.8-5.34-2.563-8.054-.667-2.358-1.328-4.717-1.908-7.1-.692-2.837-1.342-5.683-1.911-8.549-.553-2.785-1.014-5.584-1.362-8.4a52.853,52.853,0,0,1-.344-10.474,22.66,22.66,0,0,1,2.736-9.608,28.24,28.24,0,0,1,3.376-4.676,45.768,45.768,0,0,1,7.227-6.449c1.816-1.352,3.7-2.6,5.627-3.794q3.457-2.148,7.063-4.036c1.911-1,3.848-1.957,5.793-2.894q3.4-1.637,6.874-3.084c2.338-.978,4.7-1.9,7.106-2.7,2.469-.821,4.96-1.579,7.489-2.186a58.313,58.313,0,0,1,9.33-1.564,30.43,30.43,0,0,1,8.191.322,16.88,16.88,0,0,1,6.2,2.646c1.3.881,2.63,1.728,3.86,2.718a30.721,30.721,0,0,1,4.654,4.581,35.828,35.828,0,0,1,4.757,7.908,71.731,71.731,0,0,1,2.987,8.018c1.022,3.255,1.883,6.552,2.674,9.867.7,2.939,1.367,5.888,1.937,8.857.675,3.515,1.217,7.05,1.572,10.611.2,2.024.311,4.055.382,6.09a59.894,59.894,0,0,1-.154,7.107,44.614,44.614,0,0,1-1.148,7.2,17.829,17.829,0,0,1-3.2,6.434,45.908,45.908,0,0,1-7.736,7.877,67.544,67.544,0,0,1-9.1,6.225q-4.1,2.361-8.407,4.322c-2.779,1.259-5.617,2.374-8.492,3.4-2.34.836-4.7,1.6-7.1,2.249-2.22.6-4.463,1.115-6.729,1.523-2.1.378-4.217.64-6.344.826-.082.007-.17,0-.217.088ZM559,100a55.828,55.828,0,0,0-11.871,1.195,60.825,60.825,0,0,0-11.312,3.517A58.722,58.722,0,0,0,529.151,108a41.589,41.589,0,0,0-11.087,8.922,17.709,17.709,0,0,0-3.029,4.723,22.332,22.332,0,0,0-1.493,6.607,45.57,45.57,0,0,0,.09,8.412,67.963,67.963,0,0,0,2.294,11.856,76.518,76.518,0,0,0,2.783,8.04c.654,1.6,1.348,3.18,2.1,4.735.7,1.448,1.478,2.856,2.266,4.258a52.313,52.313,0,0,0,3.453,5.489,54.972,54.972,0,0,0,4.082,5.188c1.038,1.1,2.047,2.228,3.143,3.269a32.111,32.111,0,0,0,9.42,6.257,34.228,34.228,0,0,0,9.3,2.509,43.047,43.047,0,0,0,6.546.287,52.621,52.621,0,0,0,10.227-1.337,66.931,66.931,0,0,0,10.64-3.356,73.424,73.424,0,0,0,6.781-3.153,46.029,46.029,0,0,0,7.784-5.123c1.171-.97,2.347-1.933,3.425-3a27.691,27.691,0,0,0,2.15-2.487,21.448,21.448,0,0,0,2.332-3.668,24.147,24.147,0,0,0,2.395-10.269,44.4,44.4,0,0,0-.33-6.643,70.879,70.879,0,0,0-2.186-10.653q-1.061-3.855-2.5-7.6a69.884,69.884,0,0,0-3.986-8.511c-.8-1.451-1.72-2.831-2.656-4.2a48.636,48.636,0,0,0-10.757-11.415,33.12,33.12,0,0,0-11.246-5.461A43.039,43.039,0,0,0,559,100Z" transform="translate(-508.561 -88.688)" fill="#5ca439"/>
  <path id="Caminho_28" data-name="Caminho 28" d="M756.965,372.486c0,4.224.014,8.449-.007,12.674a14.226,14.226,0,0,1-.789,5,5.764,5.764,0,0,1-4.81,3.8,9.705,9.705,0,0,1-4.883-.25,3.277,3.277,0,0,1-1.964-4.4,2.55,2.55,0,0,1,2.4-1.7c.2-.017.4,0,.605-.017a1.6,1.6,0,0,0,1.61-1.713c.013-.319.005-.639.005-.959q0-13.986,0-27.973a7.088,7.088,0,0,1,.228-1.745,3.218,3.218,0,0,1,3.184-2.53c2.221-.035,4.443-.02,6.664,0,.42,0,.572-.072.561-.543a20.076,20.076,0,0,1,.461-5.511,5.975,5.975,0,0,1,3.3-4.275,7.511,7.511,0,0,1,2.427-.631,10.136,10.136,0,0,1,4.146.266,3.32,3.32,0,0,1,2.172,4.35,2.641,2.641,0,0,1-2.387,1.8,7.019,7.019,0,0,0-.852.069,1.464,1.464,0,0,0-1.418,1.548c-.052.872-.016,1.75-.034,2.624-.008.413.286.292.491.292q5.554.008,11.108,0c1.094,0,2.19-.032,3.28.026a14.521,14.521,0,0,1,7.8,2.391,5.071,5.071,0,0,1,2.158,2.706,3.175,3.175,0,0,1-4.39,3.968,8.987,8.987,0,0,1-2.3-1.448,6.973,6.973,0,0,0-5.2-1.611,5.054,5.054,0,0,0-2.548.685,2.194,2.194,0,0,0-1,2.215,1.9,1.9,0,0,0,1.4,1.617,45.438,45.438,0,0,0,6.48,1.665,26.471,26.471,0,0,1,5.911,1.965,6.718,6.718,0,0,1,4.04,5.461,10.247,10.247,0,0,1-.917,5.943,9.056,9.056,0,0,1-5.3,4.4,21.72,21.72,0,0,1-8.348,1.066,16.65,16.65,0,0,1-5.75-1.145,9.424,9.424,0,0,1-4.307-3.13,4.379,4.379,0,0,1-.625-4.4,3.451,3.451,0,0,1,5.089-1.4,7.542,7.542,0,0,1,1.839,1.636,6.032,6.032,0,0,0,4.233,2.268,9.449,9.449,0,0,0,4.523-.406,2.478,2.478,0,0,0,1.776-2.111,1.759,1.759,0,0,0-.75-1.66,8.926,8.926,0,0,0-3.316-1.409c-2-.525-4.033-.889-6-1.513a18.151,18.151,0,0,1-4.237-1.854,7.045,7.045,0,0,1-3.4-6.851,8.9,8.9,0,0,1,.455-2.522c.109-.3.056-.427-.292-.412-.5.021-1.011.023-1.514,0-.322-.016-.426.105-.389.406a2.937,2.937,0,0,1,0,.353q0,10.1,0,20.2a6.74,6.74,0,0,1-.191,1.6,3.2,3.2,0,0,1-2.754,2.59,5.378,5.378,0,0,1-2.006-.013,3.375,3.375,0,0,1-2.807-3.3c-.044-.62-.067-1.243-.067-1.864q-.007-9.669.01-19.338c0-.514-.126-.676-.638-.633a12.014,12.014,0,0,1-1.665,0c-.388-.021-.561.084-.511.5a6.792,6.792,0,0,1,.006.807Z" transform="translate(-715.862 -311.137)" fill="#6d6e72"/>
  <path id="Caminho_29" data-name="Caminho 29" d="M787.047,347.647a4.066,4.066,0,0,1,4.1,4.1,4.133,4.133,0,0,1-4.137,4.124,4.191,4.191,0,0,1-4.117-4.164A4.148,4.148,0,0,1,787.047,347.647Z" transform="translate(-749.817 -316.428)" fill="#6d6e72"/>
</svg>
